<svg width="24" height="24" viewBox="0 0 24 24" fill="none" xmlns="http://www.w3.org/2000/svg">
<path d="M12 12H21M21 12L18.5 9.5M21 12L18.5 14.5M15 8.5V8.4C15 6.15016 15 5.02524 14.4271 4.23664C14.242 3.98196 14.018 3.75799 13.7634 3.57295C12.9748 3 11.8498 3 9.6 3H8.4C6.15016 3 5.02524 3 4.23664 3.57295C3.98196 3.75799 3.75799 3.98196 3.57295 4.23664C3 5.02524 3 6.15016 3 8.4V10M15 15.5V15.6C15 17.8498 15 18.9748 14.4271 19.7634C14.242 20.018 14.018 20.242 13.7634 20.4271C12.9748 21 11.8498 21 9.6 21H8.4C6.15016 21 5.02524 21 4.23664 20.4271C3.98196 20.242 3.75799 20.018 3.57295 19.7634C3 18.9748 3 17.8498 3 15.6V14" stroke="white" stroke-width="1.5" stroke-linecap="round" stroke-linejoin="round"/>
</svg>
